<svg width="64" height="64" viewBox="0 0 241 273" fill="none" stroke="#dc6de3" xmlns="http://www.w3.org/2000/svg">
                        <path d="M58 148.5L42 160L29.5 172L20.5 182.5L14.5 191L9 201.5L5.5 211L3 221.5L2 231.5V240.5L4.5 249L7 255L10.5 260L16.5 265.5L23 269L27.5 270.5L33 271.5L41.5 271L48.5 269L55.5 265.5L66 255.5L74.5 242.5L84.5 218.5L90.1277 195.5M58 148.5L60.5 136L63.5 124L68 103.5L73.5 82.5L79 65L83.5 55.5L88 50L91 47.5L94.5 45L106.5 38.5L120.5 34L135 30L153.5 25L172.5 20L193.5 14L214.5 8.5L239.5 2L238.5 5.5L234 16.5L228 26L221.5 33L213.5 39L205.5 43.5L190 50L165 57.5L142 64.5L123 71L121 72.5L112.5 98.5L106 126V127M58 148.5L74.5 139.5L88.5 133L101.5 128.5L106 127M106 127L124 121.5L168.5 108H169.5L168 111L160.5 127L156.5 135L152.5 141.5L146.5 149L137.5 155.5L124.5 161L114 164.5L104 168L95.5 171M95.5 171L96 171.5L90.1277 195.5M95.5 171L75 179L57 188L47.5 194.196M90.1277 195.5L87 201L82 209.5L77.5 215L68.5 223L60 229L47.5 234H43L39.5 233.611M47.5 194.196L45.5 195.5L37.5 203L33 209.5L30.5 217.5V223.5L32 228L35 231.5L38.5 233.5L39.5 233.611M47.5 194.196L46 204.5L44 214L41.5 225L39.5 233.611" stroke-width="20" stroke-linecap="round" stroke-linejoin="round"/>
                        <defs>
                        
                        </defs>
                        </svg>